<svg width="1413" height="348" viewBox="0 0 1413 348" fill="none" xmlns="http://www.w3.org/2000/svg">
<path d="M173.852 347.703C127.414 347.703 83.7566 329.619 50.9195 296.784C18.0838 263.946 0 220.289 0 173.852C0 127.415 18.0838 83.7566 50.9195 50.9209C83.7566 18.0838 127.414 0 173.852 0C212.79 0 248.773 11.5828 279.475 35.3896C284.341 39.1631 285.227 46.1672 281.453 51.033C277.68 55.9002 270.676 56.7861 265.809 53.0113C239.054 32.2656 207.797 22.3002 173.852 22.3002C133.37 22.3002 95.3134 38.0652 66.6886 66.6887C38.0639 95.3134 22.3002 133.372 22.3002 173.852C22.3002 214.333 38.0639 252.391 66.6886 281.014C95.3134 309.639 133.37 325.403 173.852 325.403C207.576 325.403 239.494 314.565 266.154 294.063C271.037 290.309 278.037 291.222 281.79 296.103C285.544 300.985 284.631 307.985 279.748 311.739C249.156 335.267 212.537 347.703 173.852 347.703ZM209.823 173.345C209.823 193.499 193.485 209.835 173.333 209.835C153.179 209.835 136.841 193.499 136.841 173.345C136.841 153.192 153.179 136.855 173.333 136.855C193.485 136.855 209.823 153.192 209.823 173.345ZM257.576 173.289C257.576 180.971 251.349 187.199 243.666 187.199C235.985 187.199 229.758 180.971 229.758 173.289C229.758 165.607 235.985 159.379 243.666 159.379C251.349 159.379 257.576 165.607 257.576 173.289ZM302.866 146.934C302.866 154.617 296.638 160.844 288.956 160.844C281.275 160.844 275.048 154.617 275.048 146.934C275.048 139.252 281.275 133.025 288.956 133.025C296.638 133.025 302.866 139.252 302.866 146.934ZM302.866 202.121C302.866 209.803 296.638 216.031 288.956 216.031C281.275 216.031 275.048 209.803 275.048 202.121C275.048 194.439 281.275 188.211 288.956 188.211C296.638 188.211 302.866 194.439 302.866 202.121ZM350 146.934C350 154.617 343.772 160.844 336.09 160.844C328.409 160.844 322.182 154.617 322.182 146.934C322.182 139.252 328.409 133.025 336.09 133.025C343.772 133.025 350 139.252 350 146.934ZM327.024 93.8875C327.024 101.57 320.797 107.797 313.115 107.797C305.434 107.797 299.206 101.57 299.206 93.8875C299.206 86.2052 305.434 79.9777 313.115 79.9777C320.797 79.9777 327.024 86.2052 327.024 93.8875ZM327.024 253.704C327.024 261.386 320.797 267.614 313.115 267.614C305.434 267.614 299.206 261.386 299.206 253.704C299.206 246.022 305.434 239.794 313.115 239.794C320.797 239.794 327.024 246.022 327.024 253.704ZM350 202.121C350 209.803 343.772 216.031 336.09 216.031C328.409 216.031 322.182 209.803 322.182 202.121C322.182 194.439 328.409 188.211 336.09 188.211C343.772 188.211 350 194.439 350 202.121Z" fill="#25C7B7"/>
<path d="M173.852 347.703C127.414 347.703 83.7566 329.619 50.9195 296.784C18.0838 263.946 0 220.289 0 173.852C0 127.415 18.0838 83.7566 50.9195 50.9209C83.7566 18.0838 127.414 0 173.852 0C212.79 0 248.773 11.5828 279.475 35.3896C284.341 39.1631 285.227 46.1672 281.453 51.033C277.68 55.9002 270.676 56.7861 265.809 53.0113C239.054 32.2656 207.797 22.3002 173.852 22.3002C133.37 22.3002 95.3134 38.0652 66.6886 66.6887C38.0639 95.3134 22.3002 133.372 22.3002 173.852C22.3002 214.333 38.0639 252.391 66.6886 281.014C95.3134 309.639 133.37 325.403 173.852 325.403C207.576 325.403 239.494 314.565 266.154 294.063C271.037 290.309 278.037 291.222 281.79 296.103C285.544 300.985 284.631 307.985 279.748 311.739C249.156 335.267 212.537 347.703 173.852 347.703ZM209.823 173.345C209.823 193.499 193.485 209.835 173.333 209.835C153.179 209.835 136.841 193.499 136.841 173.345C136.841 153.192 153.179 136.855 173.333 136.855C193.485 136.855 209.823 153.192 209.823 173.345ZM257.576 173.289C257.576 180.971 251.349 187.199 243.666 187.199C235.985 187.199 229.758 180.971 229.758 173.289C229.758 165.607 235.985 159.379 243.666 159.379C251.349 159.379 257.576 165.607 257.576 173.289ZM302.866 146.934C302.866 154.617 296.638 160.844 288.956 160.844C281.275 160.844 275.048 154.617 275.048 146.934C275.048 139.252 281.275 133.025 288.956 133.025C296.638 133.025 302.866 139.252 302.866 146.934ZM302.866 202.121C302.866 209.803 296.638 216.031 288.956 216.031C281.275 216.031 275.048 209.803 275.048 202.121C275.048 194.439 281.275 188.211 288.956 188.211C296.638 188.211 302.866 194.439 302.866 202.121ZM350 146.934C350 154.617 343.772 160.844 336.09 160.844C328.409 160.844 322.182 154.617 322.182 146.934C322.182 139.252 328.409 133.025 336.09 133.025C343.772 133.025 350 139.252 350 146.934ZM327.024 93.8875C327.024 101.57 320.797 107.797 313.115 107.797C305.434 107.797 299.206 101.57 299.206 93.8875C299.206 86.2052 305.434 79.9777 313.115 79.9777C320.797 79.9777 327.024 86.2052 327.024 93.8875ZM327.024 253.704C327.024 261.386 320.797 267.614 313.115 267.614C305.434 267.614 299.206 261.386 299.206 253.704C299.206 246.022 305.434 239.794 313.115 239.794C320.797 239.794 327.024 246.022 327.024 253.704ZM350 202.121C350 209.803 343.772 216.031 336.09 216.031C328.409 216.031 322.182 209.803 322.182 202.121C322.182 194.439 328.409 188.211 336.09 188.211C343.772 188.211 350 194.439 350 202.121Z" fill="#F2BF18"/>
<path d="M89.105 128.512C84.587 129.516 78.9813 130.353 72.288 131.022C65.5947 131.691 59.236 132.026 53.212 132.026C37.148 132.026 25.351 129.683 17.821 124.998C10.291 120.313 5.4383 113.536 3.263 104.667C1.0877 95.798 0 82.83 0 65.762C0 49.698 1.255 37.148 3.765 28.112C6.275 18.909 11.295 11.964 18.825 7.27901C26.355 2.42601 37.5663 0 52.459 0C58.483 0 64.8417 0.334998 71.535 1.004C78.2283 1.673 83.7503 2.594 88.101 3.765V26.104C79.3997 24.431 69.778 23.594 59.236 23.594C49.3633 23.594 42.168 24.765 37.65 27.108C33.2993 29.283 30.371 33.216 28.865 38.905C27.5263 44.594 26.857 53.63 26.857 66.013C26.857 78.73 27.61 87.934 29.116 93.623C30.622 99.312 33.5503 103.245 37.901 105.42C42.419 107.428 49.698 108.432 59.738 108.432C67.9373 108.432 77.7263 107.679 89.105 106.173V128.512ZM135.775 132.026C122.054 132.026 111.93 129.181 105.404 123.492C99.046 117.803 95.866 108.097 95.866 94.376C95.866 84.336 97.038 76.555 99.38 71.033C101.723 65.344 105.739 61.244 111.428 58.734C117.118 56.057 125.15 54.718 135.524 54.718C145.062 54.718 159.537 55.053 178.947 55.722V50.2C178.947 41.666 178.027 35.642 176.186 32.128C174.513 28.447 171.334 26.104 166.648 25.1C161.963 24.096 153.847 23.594 142.301 23.594C136.779 23.594 130.002 23.845 121.97 24.347C113.938 24.849 107.998 25.435 104.149 26.104V3.765C118.205 1.255 134.018 0 151.588 0C167.318 0 178.947 1.75701 186.477 5.27101C194.175 8.61801 199.278 13.805 201.788 20.833C204.298 27.861 205.553 37.985 205.553 51.204V130.018H181.206L180.202 113.703H178.696C174.848 121.066 169.158 126.002 161.628 128.512C154.098 130.855 145.481 132.026 135.775 132.026ZM147.823 109.185C154.684 109.185 160.29 108.516 164.64 107.177C168.991 105.671 172.254 103.161 174.429 99.647C177.441 94.627 178.947 87.264 178.947 77.559V73.794H142.301C136.445 73.794 132.094 74.212 129.249 75.049C126.572 75.886 124.648 77.559 123.476 80.069C122.472 82.579 121.97 86.428 121.97 91.615C121.97 96.802 122.556 100.651 123.727 103.161C125.066 105.504 127.492 107.093 131.006 107.93C134.52 108.767 140.126 109.185 147.823 109.185ZM227.988 2.00801H252.335L253.339 24.849H255.347C258.359 15.478 263.212 9.036 269.905 5.522C276.766 1.841 285.886 0 297.264 0V27.61C285.886 27.61 277.101 29.283 270.909 32.63C264.885 35.809 260.618 40.913 258.108 47.941C255.766 54.802 254.594 64.423 254.594 76.806V130.018H227.988V2.00801ZM410.209 75.551H326.626C326.626 85.758 327.295 93.037 328.634 97.388C330.14 101.571 333.486 104.5 338.674 106.173C344.028 107.846 352.981 108.683 365.531 108.683C376.575 108.683 389.794 107.846 405.189 106.173V128.261C399.667 129.432 392.639 130.353 384.105 131.022C375.571 131.691 367.288 132.026 359.256 132.026C341.351 132.026 328.215 130.018 319.849 126.002C311.482 121.819 306.044 115.293 303.534 106.424C301.024 97.555 299.769 84.169 299.769 66.264C299.769 49.196 301.024 36.144 303.534 27.108C306.044 18.072 311.398 11.295 319.598 6.77701C327.797 2.25901 340.431 0 357.499 0C373.897 0 385.778 2.25901 393.141 6.77701C400.671 11.295 405.356 17.905 407.197 26.606C409.205 35.14 410.209 48.359 410.209 66.264V75.551ZM356.746 23.343C347.71 23.343 341.1 24.263 336.917 26.104C332.901 27.777 330.223 30.789 328.885 35.14C327.546 39.491 326.793 46.519 326.626 56.224H384.858V55.722C384.858 46.184 384.021 39.156 382.348 34.638C380.674 30.12 377.913 27.108 374.065 25.602C370.383 24.096 364.61 23.343 356.746 23.343ZM532.846 75.551H449.263C449.263 85.758 449.932 93.037 451.271 97.388C452.777 101.571 456.123 104.5 461.311 106.173C466.665 107.846 475.618 108.683 488.168 108.683C499.212 108.683 512.431 107.846 527.826 106.173V128.261C522.304 129.432 515.276 130.353 506.742 131.022C498.208 131.691 489.925 132.026 481.893 132.026C463.988 132.026 450.852 130.018 442.486 126.002C434.119 121.819 428.681 115.293 426.171 106.424C423.661 97.555 422.406 84.169 422.406 66.264C422.406 49.196 423.661 36.144 426.171 27.108C428.681 18.072 434.035 11.295 442.235 6.77701C450.434 2.25901 463.068 0 480.136 0C496.534 0 508.415 2.25901 515.778 6.77701C523.308 11.295 527.993 17.905 529.834 26.606C531.842 35.14 532.846 48.359 532.846 66.264V75.551ZM479.383 23.343C470.347 23.343 463.737 24.263 459.554 26.104C455.538 27.777 452.86 30.789 451.522 35.14C450.183 39.491 449.43 46.519 449.263 56.224H507.495V55.722C507.495 46.184 506.658 39.156 504.985 34.638C503.311 30.12 500.55 27.108 496.702 25.602C493.02 24.096 487.247 23.343 479.383 23.343ZM550.063 2.00801H574.41L575.414 24.849H577.422C580.434 15.478 585.286 9.036 591.98 5.522C598.84 1.841 607.96 0 619.339 0V27.61C607.96 27.61 599.175 29.283 592.984 32.63C586.96 35.809 582.693 40.913 580.183 47.941C577.84 54.802 576.669 64.423 576.669 76.806V130.018H550.063V2.00801ZM616.907 130.018V65.346H660.053V74.934H627.529V92.606H655.635V102.194H627.529V120.43H660.053V130.018H616.907ZM697.035 130.018L684.721 113.38H684.157L671.843 130.018H661.127L678.611 105.672L661.691 82.078H672.971L684.627 97.964H685.191L696.847 82.078H707.563L690.737 105.578L708.315 130.018H697.035ZM742.06 129.454C740.368 129.83 738.269 130.143 735.762 130.394C733.256 130.645 730.874 130.77 728.618 130.77C722.602 130.77 718.184 129.893 715.364 128.138C712.544 126.383 710.727 123.845 709.912 120.524C709.098 117.203 708.69 112.346 708.69 105.954C708.69 99.938 709.16 95.238 710.1 91.854C711.04 88.407 712.92 85.807 715.74 84.052C718.56 82.235 722.759 81.326 728.336 81.326C730.592 81.326 732.974 81.451 735.48 81.702C737.987 81.953 740.055 82.297 741.684 82.736V91.102C738.426 90.475 734.822 90.162 730.874 90.162C727.177 90.162 724.482 90.601 722.79 91.478C721.161 92.293 720.064 93.765 719.5 95.896C718.999 98.027 718.748 101.411 718.748 106.048C718.748 110.811 719.03 114.257 719.594 116.388C720.158 118.519 721.255 119.991 722.884 120.806C724.576 121.558 727.302 121.934 731.062 121.934C734.133 121.934 737.799 121.652 742.06 121.088V129.454ZM778.526 104.262C778.526 99.938 778.307 96.899 777.868 95.144C777.43 93.327 776.552 92.167 775.236 91.666C773.92 91.102 771.633 90.82 768.374 90.82C765.116 90.82 762.672 91.321 761.042 92.324C759.476 93.327 758.442 94.831 757.94 96.836C757.502 98.779 757.282 101.599 757.282 105.296V130.018H747.318V60.176H757.282V87.906H757.94C759.068 85.713 760.792 84.083 763.11 83.018C765.429 81.953 768.625 81.42 772.698 81.42C777.148 81.42 780.5 82.109 782.756 83.488C785.012 84.804 786.516 86.778 787.268 89.41C788.083 92.042 788.49 95.614 788.49 100.126V130.018H778.526V104.262ZM809.046 130.77C803.908 130.77 800.116 129.705 797.672 127.574C795.291 125.443 794.1 121.809 794.1 116.67C794.1 112.91 794.539 109.996 795.416 107.928C796.294 105.797 797.798 104.262 799.928 103.322C802.059 102.319 805.067 101.818 808.952 101.818C812.524 101.818 817.945 101.943 825.214 102.194V100.126C825.214 96.93 824.87 94.674 824.18 93.358C823.554 91.979 822.363 91.102 820.608 90.726C818.854 90.35 815.814 90.162 811.49 90.162C809.422 90.162 806.884 90.256 803.876 90.444C800.868 90.632 798.644 90.851 797.202 91.102V82.736C802.466 81.796 808.388 81.326 814.968 81.326C820.859 81.326 825.214 81.984 828.034 83.3C830.917 84.553 832.828 86.496 833.768 89.128C834.708 91.76 835.178 95.551 835.178 100.502V130.018H826.06L825.684 123.908H825.12C823.679 126.665 821.548 128.514 818.728 129.454C815.908 130.331 812.681 130.77 809.046 130.77ZM813.558 122.216C816.128 122.216 818.227 121.965 819.856 121.464C821.486 120.9 822.708 119.96 823.522 118.644C824.65 116.764 825.214 114.007 825.214 110.372V108.962H811.49C809.297 108.962 807.668 109.119 806.602 109.432C805.6 109.745 804.879 110.372 804.44 111.312C804.064 112.252 803.876 113.693 803.876 115.636C803.876 117.579 804.096 119.02 804.534 119.96C805.036 120.837 805.944 121.433 807.26 121.746C808.576 122.059 810.676 122.216 813.558 122.216ZM874.788 104.262C874.788 99.938 874.569 96.899 874.13 95.144C873.692 93.327 872.814 92.167 871.498 91.666C870.182 91.102 867.895 90.82 864.636 90.82C861.378 90.82 858.934 91.321 857.304 92.324C855.738 93.327 854.704 94.831 854.202 96.836C853.764 98.779 853.544 101.599 853.544 105.296V130.018H843.58V82.078H852.792L853.074 88.376H853.826C854.954 85.995 856.709 84.24 859.09 83.112C861.534 81.921 864.856 81.326 869.054 81.326C873.441 81.326 876.762 82.015 879.018 83.394C881.274 84.773 882.778 86.778 883.53 89.41C884.345 91.979 884.752 95.52 884.752 100.032V130.018H874.788V104.262ZM911.042 149.382C907.971 149.382 904.869 149.288 901.736 149.1C898.665 148.912 896.221 148.693 894.404 148.442V140.17C899.668 140.421 904.431 140.546 908.692 140.546C913.329 140.546 916.651 140.17 918.656 139.418C920.661 138.729 921.946 137.444 922.51 135.564C923.137 133.747 923.45 130.707 923.45 126.446V124.002H922.98C921.727 126.383 919.878 128.044 917.434 128.984C915.053 129.861 912.013 130.3 908.316 130.3C903.929 130.3 900.514 129.579 898.07 128.138C895.626 126.697 893.871 124.253 892.806 120.806C891.741 117.359 891.208 112.44 891.208 106.048C891.208 99.593 891.741 94.611 892.806 91.102C893.871 87.53 895.626 85.023 898.07 83.582C900.577 82.078 904.023 81.326 908.41 81.326C911.857 81.326 914.865 81.827 917.434 82.83C920.066 83.833 922.04 85.681 923.356 88.376H923.92L924.296 82.078H933.414V124.19C933.414 130.833 932.913 135.846 931.91 139.23C930.97 142.677 928.902 145.215 925.706 146.844C922.573 148.536 917.685 149.382 911.042 149.382ZM912.452 121.088C914.959 121.088 916.964 120.806 918.468 120.242C919.972 119.615 921.1 118.707 921.852 117.516C922.541 116.388 922.98 114.978 923.168 113.286C923.356 111.531 923.45 109.087 923.45 105.954C923.45 102.821 923.356 100.408 923.168 98.716C922.98 96.961 922.541 95.52 921.852 94.392C921.1 93.139 919.972 92.23 918.468 91.666C916.964 91.039 914.959 90.726 912.452 90.726C908.943 90.726 906.436 91.071 904.932 91.76C903.491 92.387 902.519 93.703 902.018 95.708C901.517 97.713 901.266 101.129 901.266 105.954C901.266 110.717 901.517 114.101 902.018 116.106C902.519 118.111 903.491 119.459 904.932 120.148C906.436 120.775 908.943 121.088 912.452 121.088ZM981.25 109.62H949.948C949.948 113.443 950.198 116.169 950.7 117.798C951.264 119.365 952.517 120.461 954.46 121.088C956.465 121.715 959.818 122.028 964.518 122.028C968.654 122.028 973.604 121.715 979.37 121.088V129.36C977.302 129.799 974.67 130.143 971.474 130.394C968.278 130.645 965.176 130.77 962.168 130.77C955.462 130.77 950.543 130.018 947.41 128.514C944.276 126.947 942.24 124.503 941.3 121.182C940.36 117.861 939.89 112.847 939.89 106.142C939.89 99.75 940.36 94.862 941.3 91.478C942.24 88.094 944.245 85.556 947.316 83.864C950.386 82.172 955.118 81.326 961.51 81.326C967.651 81.326 972.1 82.172 974.858 83.864C977.678 85.556 979.432 88.031 980.122 91.29C980.874 94.486 981.25 99.437 981.25 106.142V109.62ZM961.228 90.068C957.844 90.068 955.368 90.413 953.802 91.102C952.298 91.729 951.295 92.857 950.794 94.486C950.292 96.115 950.01 98.747 949.948 102.382H971.756V102.194C971.756 98.622 971.442 95.99 970.816 94.298C970.189 92.606 969.155 91.478 967.714 90.914C966.335 90.35 964.173 90.068 961.228 90.068Z" transform="translate(430.809 106.982)" fill="white"/>
</svg>
