<svg width="500" height="124" viewBox="0 0 500 124" fill="none" xmlns="http://www.w3.org/2000/svg">
<path d="M61.5598 123.119C45.1164 123.119 29.6576 116.716 18.0302 105.089C6.40334 93.4614 0 78.0028 0 61.5597C0 45.1167 6.40334 29.6576 18.0302 18.0307C29.6576 6.40334 45.1164 0 61.5598 0C75.3474 0 88.0887 4.10139 98.9601 12.5312C100.683 13.8674 100.997 16.3475 99.6605 18.0704C98.3245 19.7939 95.8444 20.1076 94.1211 18.7709C84.6473 11.425 73.5794 7.89634 61.5598 7.89634C47.2254 7.89634 33.7498 13.4786 23.614 23.614C13.4782 33.7498 7.89634 47.2261 7.89634 61.5597C7.89634 75.8938 13.4782 89.3698 23.614 99.505C33.7498 109.641 47.2254 115.223 61.5598 115.223C73.5012 115.223 84.8031 111.385 94.2432 104.126C95.9723 102.796 98.4509 103.12 99.7798 104.848C101.109 106.577 100.786 109.055 99.0568 110.385C88.2244 118.716 75.2578 123.119 61.5598 123.119ZM74.2968 61.3802C74.2968 68.5166 68.5117 74.3011 61.376 74.3011C54.2396 74.3011 48.4544 68.5166 48.4544 61.3802C48.4544 54.2442 54.2396 48.4594 61.376 48.4594C68.5117 48.4594 74.2968 54.2442 74.2968 61.3802ZM91.2058 61.3604C91.2058 64.0805 89.0009 66.2858 86.2804 66.2858C83.5606 66.2858 81.3557 64.0805 81.3557 61.3604C81.3557 58.6403 83.5606 56.435 86.2804 56.435C89.0009 56.435 91.2058 58.6403 91.2058 61.3604ZM107.243 52.0283C107.243 54.7488 105.037 56.9537 102.317 56.9537C99.5975 56.9537 97.3925 54.7488 97.3925 52.0283C97.3925 49.3081 99.5975 47.1032 102.317 47.1032C105.037 47.1032 107.243 49.3081 107.243 52.0283ZM107.243 71.5696C107.243 74.2897 105.037 76.495 102.317 76.495C99.5975 76.495 97.3925 74.2897 97.3925 71.5696C97.3925 68.8495 99.5975 66.6442 102.317 66.6442C105.037 66.6442 107.243 68.8495 107.243 71.5696ZM123.932 52.0283C123.932 54.7488 121.727 56.9537 119.007 56.9537C116.287 56.9537 114.082 54.7488 114.082 52.0283C114.082 49.3081 116.287 47.1032 119.007 47.1032C121.727 47.1032 123.932 49.3081 123.932 52.0283ZM115.797 33.2449C115.797 35.9652 113.592 38.1701 110.872 38.1701C108.152 38.1701 105.947 35.9652 105.947 33.2449C105.947 30.5246 108.152 28.3195 110.872 28.3195C113.592 28.3195 115.797 30.5246 115.797 33.2449ZM115.797 89.8348C115.797 92.5549 113.592 94.7602 110.872 94.7602C108.152 94.7602 105.947 92.5549 105.947 89.8348C105.947 87.1146 108.152 84.9093 110.872 84.9093C113.592 84.9093 115.797 87.1146 115.797 89.8348ZM123.932 71.5696C123.932 74.2897 121.727 76.495 119.007 76.495C116.287 76.495 114.082 74.2897 114.082 71.5696C114.082 68.8495 116.287 66.6442 119.007 66.6442C121.727 66.6442 123.932 68.8495 123.932 71.5696Z" fill="#25C7B7"/>
<path d="M61.5598 123.119C45.1164 123.119 29.6576 116.716 18.0302 105.089C6.40334 93.4614 0 78.0028 0 61.5597C0 45.1167 6.40334 29.6576 18.0302 18.0307C29.6576 6.40334 45.1164 0 61.5598 0C75.3474 0 88.0887 4.10139 98.9601 12.5312C100.683 13.8674 100.997 16.3475 99.6605 18.0704C98.3245 19.7939 95.8444 20.1076 94.1211 18.7709C84.6473 11.425 73.5794 7.89634 61.5598 7.89634C47.2254 7.89634 33.7498 13.4786 23.614 23.614C13.4782 33.7498 7.89634 47.2261 7.89634 61.5597C7.89634 75.8938 13.4782 89.3698 23.614 99.505C33.7498 109.641 47.2254 115.223 61.5598 115.223C73.5012 115.223 84.8031 111.385 94.2432 104.126C95.9723 102.796 98.4509 103.12 99.7798 104.848C101.109 106.577 100.786 109.055 99.0568 110.385C88.2244 118.716 75.2578 123.119 61.5598 123.119ZM74.2968 61.3802C74.2968 68.5166 68.5117 74.3011 61.376 74.3011C54.2396 74.3011 48.4544 68.5166 48.4544 61.3802C48.4544 54.2442 54.2396 48.4594 61.376 48.4594C68.5117 48.4594 74.2968 54.2442 74.2968 61.3802ZM91.2058 61.3604C91.2058 64.0805 89.0009 66.2858 86.2804 66.2858C83.5606 66.2858 81.3557 64.0805 81.3557 61.3604C81.3557 58.6403 83.5606 56.435 86.2804 56.435C89.0009 56.435 91.2058 58.6403 91.2058 61.3604ZM107.243 52.0283C107.243 54.7488 105.037 56.9537 102.317 56.9537C99.5975 56.9537 97.3925 54.7488 97.3925 52.0283C97.3925 49.3081 99.5975 47.1032 102.317 47.1032C105.037 47.1032 107.243 49.3081 107.243 52.0283ZM107.243 71.5696C107.243 74.2897 105.037 76.495 102.317 76.495C99.5975 76.495 97.3925 74.2897 97.3925 71.5696C97.3925 68.8495 99.5975 66.6442 102.317 66.6442C105.037 66.6442 107.243 68.8495 107.243 71.5696ZM123.932 52.0283C123.932 54.7488 121.727 56.9537 119.007 56.9537C116.287 56.9537 114.082 54.7488 114.082 52.0283C114.082 49.3081 116.287 47.1032 119.007 47.1032C121.727 47.1032 123.932 49.3081 123.932 52.0283ZM115.797 33.2449C115.797 35.9652 113.592 38.1701 110.872 38.1701C108.152 38.1701 105.947 35.9652 105.947 33.2449C105.947 30.5246 108.152 28.3195 110.872 28.3195C113.592 28.3195 115.797 30.5246 115.797 33.2449ZM115.797 89.8348C115.797 92.5549 113.592 94.7602 110.872 94.7602C108.152 94.7602 105.947 92.5549 105.947 89.8348C105.947 87.1146 108.152 84.9093 110.872 84.9093C113.592 84.9093 115.797 87.1146 115.797 89.8348ZM123.932 71.5696C123.932 74.2897 121.727 76.495 119.007 76.495C116.287 76.495 114.082 74.2897 114.082 71.5696C114.082 68.8495 116.287 66.6442 119.007 66.6442C121.727 66.6442 123.932 68.8495 123.932 71.5696Z" fill="#F2BF18"/>
<path d="M31.5514 45.5052C29.9517 45.8607 27.9667 46.1571 25.5967 46.394C23.2266 46.6308 20.975 46.7495 18.842 46.7495C13.1538 46.7495 8.97661 45.9198 6.31029 44.2609C3.64397 42.602 1.92566 40.2023 1.15541 37.0618C0.385147 33.9214 0 29.3295 0 23.2859C0 17.5977 0.444386 13.1538 1.33316 9.95426C2.22193 6.69554 3.99948 4.23637 6.6658 2.57744C9.33212 0.859032 13.302 0 18.5754 0C20.7084 0 22.96 0.11862 25.33 0.355508C27.7001 0.592397 29.6554 0.918517 31.1959 1.33316V9.24324C28.1149 8.65084 24.7079 8.35447 20.975 8.35447C17.4792 8.35447 14.9314 8.76911 13.3316 9.59875C11.791 10.3689 10.7542 11.7615 10.2209 13.776C9.74687 15.7904 9.50987 18.99 9.50987 23.3747C9.50987 27.8777 9.7765 31.1368 10.3098 33.1512C10.843 35.1657 11.8799 36.5583 13.4205 37.3285C15.0203 38.0395 17.5977 38.395 21.1528 38.395C24.0561 38.395 27.5223 38.1284 31.5514 37.5951V45.5052ZM48.077 46.7495C43.2184 46.7495 39.6336 45.7421 37.3228 43.7276C35.0715 41.7132 33.9455 38.2764 33.9455 33.4179C33.9455 29.8628 34.3605 27.1076 35.1897 25.1523C36.0194 23.1378 37.4414 21.6861 39.4559 20.7973C41.4706 19.8494 44.3147 19.3753 47.9881 19.3753C51.3654 19.3753 56.4909 19.4939 63.3638 19.7308V17.7755C63.3638 14.7536 63.0381 12.6206 62.3862 11.3763C61.7938 10.0729 60.6681 9.24324 59.0089 8.88773C57.3499 8.53222 54.4761 8.35447 50.3878 8.35447C48.4325 8.35447 46.0328 8.44334 43.1887 8.6211C40.3446 8.79885 38.2413 9.00635 36.8784 9.24324V1.33316C41.8555 0.444386 47.4548 0 53.6762 0C59.2461 0 63.3638 0.622145 66.0302 1.86643C68.756 3.05158 70.5629 4.88825 71.4517 7.37682C72.3405 9.86538 72.7848 13.4502 72.7848 18.131V46.0384H64.1637L63.8082 40.2614H63.275C61.9124 42.8686 59.8976 44.6164 57.2313 45.5052C54.565 46.3348 51.5138 46.7495 48.077 46.7495ZM52.3431 38.6616C54.7725 38.6616 56.7575 38.4247 58.2978 37.9506C59.8385 37.4173 60.9939 36.5286 61.7641 35.2843C62.8306 33.5067 63.3638 30.8996 63.3638 27.4631V26.1299H50.3878C48.3142 26.1299 46.7735 26.2779 45.7661 26.5743C44.8182 26.8707 44.137 27.4631 43.722 28.3519C43.3665 29.2406 43.1887 30.6035 43.1887 32.4402C43.1887 34.2769 43.3962 35.6398 43.8108 36.5286C44.285 37.3582 45.144 37.9209 46.3883 38.2172C47.6326 38.5136 49.6176 38.6616 52.3431 38.6616ZM80.7289 0.711022H89.35L89.7055 8.79885H90.4165C91.4831 5.48065 93.2015 3.19958 95.5714 1.9553C98.0009 0.651886 101.23 0 105.259 0V9.7765C101.23 9.7765 98.1195 10.3689 95.9269 11.5541C93.7939 12.6797 92.283 14.487 91.3942 16.9756C90.5649 19.405 90.1499 22.8117 90.1499 27.1965V46.0384H80.7289V0.711022ZM145.252 26.7521H115.656C115.656 30.3663 115.893 32.9437 116.367 34.4844C116.9 35.9656 118.085 37.0027 119.922 37.5951C121.818 38.1875 124.988 38.4839 129.432 38.4839C133.343 38.4839 138.023 38.1875 143.475 37.5951V45.4163C141.519 45.831 139.031 46.1571 136.009 46.394C132.987 46.6308 130.054 46.7495 127.21 46.7495C120.87 46.7495 116.219 46.0384 113.256 44.6164C110.294 43.1352 108.368 40.8244 107.479 37.684C106.59 34.5435 106.146 29.8036 106.146 23.4636C106.146 17.42 106.59 12.7983 107.479 9.59875C108.368 6.39917 110.264 3.99948 113.167 2.39969C116.071 0.799899 120.544 0 126.588 0C132.394 0 136.601 0.799899 139.208 2.39969C141.875 3.99948 143.534 6.34003 144.186 9.421C144.897 12.4428 145.252 17.1236 145.252 23.4636V26.7521ZM126.321 8.26559C123.122 8.26559 120.781 8.59136 119.3 9.24324C117.878 9.83564 116.93 10.9022 116.456 12.4428C115.982 13.9835 115.715 16.472 115.656 19.9085H136.275V19.7308C136.275 16.3534 135.979 13.8649 135.387 12.2651C134.794 10.6653 133.816 9.59875 132.454 9.06549C131.15 8.53222 129.106 8.26559 126.321 8.26559ZM188.677 26.7521H159.081C159.081 30.3663 159.318 32.9437 159.792 34.4844C160.325 35.9656 161.51 37.0027 163.347 37.5951C165.243 38.1875 168.413 38.4839 172.857 38.4839C176.767 38.4839 181.448 38.1875 186.899 37.5951V45.4163C184.944 45.831 182.456 46.1571 179.434 46.394C176.412 46.6308 173.479 46.7495 170.635 46.7495C164.295 46.7495 159.643 46.0384 156.681 44.6164C153.718 43.1352 151.793 40.8244 150.904 37.684C150.015 34.5435 149.571 29.8036 149.571 23.4636C149.571 17.42 150.015 12.7983 150.904 9.59875C151.793 6.39917 153.689 3.99948 156.592 2.39969C159.495 0.799899 163.969 0 170.013 0C175.819 0 180.026 0.799899 182.633 2.39969C185.3 3.99948 186.959 6.34003 187.61 9.421C188.321 12.4428 188.677 17.1236 188.677 23.4636V26.7521ZM169.746 8.26559C166.546 8.26559 164.206 8.59136 162.725 9.24324C161.303 9.83564 160.354 10.9022 159.881 12.4428C159.407 13.9835 159.14 16.472 159.081 19.9085H179.7V19.7308C179.7 16.3534 179.404 13.8649 178.812 12.2651C178.219 10.6653 177.241 9.59875 175.879 9.06549C174.575 8.53222 172.531 8.26559 169.746 8.26559ZM194.773 0.711022H203.394L203.75 8.79885H204.461C205.528 5.48065 207.246 3.19958 209.616 1.9553C212.045 0.651886 215.274 0 219.303 0V9.7765C215.274 9.7765 212.164 10.3689 209.971 11.5541C207.838 12.6797 206.327 14.487 205.439 16.9756C204.609 19.405 204.194 22.8117 204.194 27.1965V46.0384H194.773V0.711022ZM218.442 46.0384V23.1386H233.72V26.5336H222.204V32.7911H232.156V36.1862H222.204V42.6434H233.72V46.0384H218.442ZM246.815 46.0384L242.455 40.147H242.255L237.895 46.0384H234.1L240.291 37.4177L234.3 29.0632H238.294L242.421 34.6884H242.621L246.749 29.0632H250.543L244.585 37.3844L250.809 46.0384H246.815ZM262.758 45.8387C262.159 45.9719 261.416 46.0827 260.528 46.1716C259.641 46.2605 258.797 46.3047 257.998 46.3047C255.868 46.3047 254.304 45.9942 253.305 45.3727C252.307 44.7513 251.663 43.8526 251.375 42.6767C251.087 41.5007 250.942 39.7809 250.942 37.5176C250.942 35.3873 251.108 33.7231 251.441 32.5248C251.774 31.3043 252.44 30.3836 253.438 29.7622C254.437 29.1188 255.924 28.797 257.899 28.797C258.697 28.797 259.541 28.8412 260.428 28.9301C261.316 29.019 262.048 29.1408 262.625 29.2962V32.2586C261.471 32.0366 260.195 31.9257 258.797 31.9257C257.488 31.9257 256.534 32.0812 255.935 32.3917C255.358 32.6803 254.969 33.2015 254.77 33.9561C254.592 34.7107 254.504 35.9089 254.504 37.5508C254.504 39.2374 254.603 40.4576 254.803 41.2122C255.003 41.9667 255.391 42.488 255.968 42.7765C256.567 43.0428 257.532 43.176 258.864 43.176C259.951 43.176 261.249 43.0761 262.758 42.8764V45.8387ZM275.67 36.9184C275.67 35.3873 275.593 34.3112 275.437 33.6898C275.282 33.0464 274.971 32.6357 274.505 32.4583C274.04 32.2586 273.23 32.1587 272.076 32.1587C270.922 32.1587 270.057 32.3361 269.48 32.6913C268.925 33.0464 268.559 33.579 268.381 34.2889C268.226 34.9769 268.148 35.9755 268.148 37.2846V46.0384H264.62V21.3079H268.148V31.1269H268.381C268.781 30.3504 269.391 29.7732 270.212 29.3961C271.033 29.019 272.165 28.8302 273.607 28.8302C275.183 28.8302 276.369 29.0742 277.168 29.5625C277.967 30.0285 278.5 30.7275 278.766 31.6594C279.055 32.5914 279.199 33.8562 279.199 35.4539V46.0384H275.67V36.9184ZM286.477 46.3047C284.658 46.3047 283.315 45.9276 282.45 45.173C281.607 44.4185 281.185 43.1317 281.185 41.312C281.185 39.9806 281.341 38.9488 281.651 38.2165C281.962 37.462 282.495 36.9184 283.249 36.5856C284.003 36.2304 285.068 36.053 286.444 36.053C287.709 36.053 289.628 36.0973 292.202 36.1862V35.4539C292.202 34.3222 292.081 33.5234 291.836 33.0574C291.615 32.5691 291.193 32.2586 290.571 32.1254C289.95 31.9923 288.874 31.9257 287.343 31.9257C286.611 31.9257 285.712 31.959 284.647 32.0256C283.582 32.0921 282.794 32.1697 282.283 32.2586V29.2962C284.147 28.9634 286.244 28.797 288.574 28.797C290.66 28.797 292.202 29.0299 293.201 29.4959C294.222 29.9396 294.898 30.6276 295.231 31.5596C295.564 32.4916 295.731 33.8339 295.731 35.587V46.0384H292.502L292.369 43.8749H292.169C291.659 44.8512 290.904 45.5059 289.906 45.8387C288.907 46.1493 287.764 46.3047 286.477 46.3047ZM288.075 43.2758C288.985 43.2758 289.728 43.1869 290.305 43.0095C290.882 42.8098 291.315 42.477 291.603 42.011C292.003 41.3453 292.202 40.3691 292.202 39.0819V38.5827H287.343C286.566 38.5827 285.989 38.6383 285.612 38.7491C285.257 38.8599 285.002 39.0819 284.846 39.4148C284.713 39.7476 284.647 40.2579 284.647 40.9459C284.647 41.6339 284.725 42.1441 284.88 42.477C285.057 42.7875 285.379 42.9986 285.845 43.1094C286.311 43.2202 287.055 43.2758 288.075 43.2758ZM309.756 36.9184C309.756 35.3873 309.679 34.3112 309.523 33.6898C309.368 33.0464 309.057 32.6357 308.591 32.4583C308.125 32.2586 307.315 32.1587 306.161 32.1587C305.008 32.1587 304.142 32.3361 303.565 32.6913C303.011 33.0464 302.645 33.579 302.467 34.2889C302.312 34.9769 302.234 35.9755 302.234 37.2846V46.0384H298.706V29.0632H301.968L302.067 31.2933H302.334C302.733 30.4502 303.354 29.8288 304.198 29.4294C305.063 29.0076 306.239 28.797 307.726 28.797C309.279 28.797 310.455 29.0409 311.254 29.5292C312.053 30.0175 312.585 30.7275 312.852 31.6594C313.14 32.5691 313.284 33.823 313.284 35.4206V46.0384H309.756V36.9184ZM322.593 52.8951C321.506 52.8951 320.408 52.8618 319.298 52.7952C318.211 52.7287 317.345 52.6511 316.702 52.5623V49.6332C318.566 49.7221 320.253 49.7663 321.761 49.7663C323.403 49.7663 324.58 49.6332 325.289 49.3669C325.999 49.1229 326.454 48.6679 326.654 48.0022C326.876 47.3589 326.987 46.2824 326.987 44.7736V43.9082H326.821C326.377 44.7513 325.722 45.3395 324.857 45.6723C324.014 45.9829 322.937 46.1383 321.628 46.1383C320.075 46.1383 318.866 45.883 318 45.3727C317.135 44.8625 316.513 43.9971 316.136 42.7765C315.759 41.556 315.57 39.8142 315.57 37.5508C315.57 35.2652 315.759 33.5011 316.136 32.2586C316.513 30.9937 317.135 30.106 318 29.5958C318.888 29.0632 320.108 28.797 321.661 28.797C322.882 28.797 323.947 28.9744 324.857 29.3295C325.789 29.6847 326.488 30.339 326.954 31.2933H327.153L327.287 29.0632H330.515V43.9748C330.515 46.327 330.338 48.1021 329.983 49.3004C329.65 50.5209 328.918 51.4196 327.786 51.9964C326.676 52.5955 324.946 52.8951 322.593 52.8951ZM323.093 42.8764C323.98 42.8764 324.69 42.7765 325.223 42.5768C325.755 42.3548 326.155 42.0333 326.421 41.6116C326.665 41.2122 326.821 40.7129 326.887 40.1138C326.954 39.4923 326.987 38.6269 326.987 37.5176C326.987 36.4082 326.954 35.5538 326.887 34.9546C326.821 34.3332 326.665 33.8229 326.421 33.4235C326.155 32.9799 325.755 32.658 325.223 32.4583C324.69 32.2363 323.98 32.1254 323.093 32.1254C321.85 32.1254 320.962 32.2476 320.43 32.4916C319.92 32.7136 319.576 33.1796 319.398 33.8895C319.221 34.5995 319.132 35.8091 319.132 37.5176C319.132 39.2041 319.221 40.4024 319.398 41.1123C319.576 41.8223 319.92 42.2996 320.43 42.5436C320.962 42.7656 321.85 42.8764 323.093 42.8764ZM347.454 38.8157H336.37C336.37 40.1694 336.458 41.1346 336.636 41.7114C336.836 42.2663 337.279 42.6544 337.967 42.8764C338.677 43.0984 339.865 43.2092 341.529 43.2092C342.993 43.2092 344.746 43.0984 346.788 42.8764V45.8055C346.056 45.9609 345.124 46.0827 343.992 46.1716C342.86 46.2605 341.762 46.3047 340.697 46.3047C338.322 46.3047 336.58 46.0384 335.471 45.5059C334.361 44.951 333.64 44.0856 333.308 42.9097C332.975 41.7337 332.808 39.9583 332.808 37.5841C332.808 35.3208 332.975 33.59 333.308 32.3917C333.64 31.1935 334.35 30.2948 335.438 29.6956C336.525 29.0965 338.2 28.797 340.464 28.797C342.638 28.797 344.214 29.0965 345.19 29.6956C346.189 30.2948 346.81 31.1711 347.054 32.3251C347.32 33.4568 347.454 35.2099 347.454 37.5841V38.8157ZM340.364 31.8924C339.166 31.8924 338.289 32.0146 337.734 32.2586C337.202 32.4806 336.847 32.88 336.669 33.4568C336.492 34.0336 336.392 34.9656 336.37 36.2527H344.092V36.1862C344.092 34.9213 343.981 33.9894 343.759 33.3902C343.537 32.7911 343.171 32.3917 342.661 32.192C342.172 31.9923 341.407 31.8924 340.364 31.8924Z" transform="translate(152.546 37.8816)" fill="white"/>
</svg>
